<mxfile host="Electron" modified="2024-02-13T19:05:32.455Z" agent="Mozilla/5.0 (Macintosh; Intel Mac OS X 10_15_7) AppleWebKit/537.36 (KHTML, like Gecko) draw.io/23.0.2 Chrome/120.0.6099.109 Electron/28.1.0 Safari/537.36" etag="4SEkJfBGH_luUQmy9mjJ" version="23.0.2" type="device">
  <diagram id="JAGPyIvwFEYRg-lGkIm9" name="Page-1">
    <mxGraphModel dx="793" dy="640" grid="1" gridSize="10" guides="1" tooltips="1" connect="1" arrows="1" fold="1" page="1" pageScale="1" pageWidth="850" pageHeight="1100" math="0" shadow="0">
      <root>
        <mxCell id="0" />
        <mxCell id="1" parent="0" />
        <mxCell id="toi9PzrO5dzy1bC58ue5-1" value="Controller&lt;br&gt;Core" style="rounded=0;whiteSpace=wrap;html=1;" parent="1" vertex="1">
          <mxGeometry x="740" y="430" width="90" height="90" as="geometry" />
        </mxCell>
        <mxCell id="toi9PzrO5dzy1bC58ue5-2" value="View&lt;br&gt;Device" style="ellipse;whiteSpace=wrap;html=1;aspect=fixed;labelPosition=center;verticalLabelPosition=middle;align=center;verticalAlign=middle;" parent="1" vertex="1">
          <mxGeometry x="640" y="90" width="200" height="200" as="geometry" />
        </mxCell>
        <mxCell id="toi9PzrO5dzy1bC58ue5-3" value="Command&lt;br&gt;Line" style="whiteSpace=wrap;html=1;aspect=fixed;" parent="1" vertex="1">
          <mxGeometry x="775" y="160" width="60" height="60" as="geometry" />
        </mxCell>
        <mxCell id="toi9PzrO5dzy1bC58ue5-5" value="Qt&lt;br&gt;PyQt&lt;br&gt;QML" style="rounded=0;whiteSpace=wrap;html=1;" parent="1" vertex="1">
          <mxGeometry x="712.5" y="230" width="45" height="52.5" as="geometry" />
        </mxCell>
        <mxCell id="toi9PzrO5dzy1bC58ue5-6" value="Java" style="rounded=0;whiteSpace=wrap;html=1;" parent="1" vertex="1">
          <mxGeometry x="710" y="110" width="50" height="30" as="geometry" />
        </mxCell>
        <mxCell id="toi9PzrO5dzy1bC58ue5-7" value="View&lt;br&gt;Device&lt;br&gt;Controller" style="ellipse;whiteSpace=wrap;html=1;" parent="1" vertex="1">
          <mxGeometry x="640" y="126.25" width="60" height="127.5" as="geometry" />
        </mxCell>
        <mxCell id="toi9PzrO5dzy1bC58ue5-8" value="Model&lt;br&gt;Device" style="ellipse;whiteSpace=wrap;html=1;aspect=fixed;labelPosition=center;verticalLabelPosition=middle;align=center;verticalAlign=middle;" parent="1" vertex="1">
          <mxGeometry x="610" y="590" width="230" height="230" as="geometry" />
        </mxCell>
        <mxCell id="toi9PzrO5dzy1bC58ue5-9" value="Model&lt;br&gt;Device&lt;br&gt;Controller" style="ellipse;whiteSpace=wrap;html=1;" parent="1" vertex="1">
          <mxGeometry x="610" y="640" width="70" height="130" as="geometry" />
        </mxCell>
        <mxCell id="toi9PzrO5dzy1bC58ue5-10" value="State&lt;br&gt;Management&lt;br&gt;Device" style="ellipse;whiteSpace=wrap;html=1;aspect=fixed;" parent="1" vertex="1">
          <mxGeometry x="65" y="655" width="215" height="215" as="geometry" />
        </mxCell>
        <mxCell id="toi9PzrO5dzy1bC58ue5-11" value="State Mgmtl Device&lt;br&gt;Controller" style="ellipse;whiteSpace=wrap;html=1;" parent="1" vertex="1">
          <mxGeometry x="220" y="705" width="60" height="110" as="geometry" />
        </mxCell>
        <mxCell id="toi9PzrO5dzy1bC58ue5-12" value="CRUD&lt;br&gt;device" style="ellipse;whiteSpace=wrap;html=1;aspect=fixed;" parent="1" vertex="1">
          <mxGeometry x="70" y="400" width="200" height="200" as="geometry" />
        </mxCell>
        <mxCell id="toi9PzrO5dzy1bC58ue5-13" value="CRUD Device&lt;br&gt;Controller" style="ellipse;whiteSpace=wrap;html=1;" parent="1" vertex="1">
          <mxGeometry x="210" y="440" width="60" height="120" as="geometry" />
        </mxCell>
        <mxCell id="toi9PzrO5dzy1bC58ue5-14" value="API&lt;br&gt;device" style="ellipse;whiteSpace=wrap;html=1;aspect=fixed;" parent="1" vertex="1">
          <mxGeometry x="65" y="120" width="205" height="205" as="geometry" />
        </mxCell>
        <mxCell id="toi9PzrO5dzy1bC58ue5-15" value="API&lt;br&gt;Device&lt;br&gt;Controller" style="ellipse;whiteSpace=wrap;html=1;" parent="1" vertex="1">
          <mxGeometry x="215" y="175" width="55" height="115" as="geometry" />
        </mxCell>
        <mxCell id="toi9PzrO5dzy1bC58ue5-18" value="" style="html=1;outlineConnect=0;fillColor=#dae8fc;strokeColor=#6c8ebf;gradientDirection=north;strokeWidth=2;shape=mxgraph.networks.bus;gradientColor=#7ea6e0;gradientDirection=north;perimeter=backbonePerimeter;backboneSize=20;direction=south;labelPosition=center;verticalLabelPosition=top;align=center;verticalAlign=bottom;" parent="1" vertex="1">
          <mxGeometry x="490" y="80" width="20" height="790" as="geometry" />
        </mxCell>
        <mxCell id="toi9PzrO5dzy1bC58ue5-19" value="Address" style="text;html=1;strokeColor=none;fillColor=none;align=center;verticalAlign=middle;whiteSpace=wrap;rounded=0;rotation=315;" parent="1" vertex="1">
          <mxGeometry x="490" y="30" width="40" height="20" as="geometry" />
        </mxCell>
        <mxCell id="toi9PzrO5dzy1bC58ue5-21" value="Instruction" style="text;html=1;strokeColor=none;fillColor=none;align=center;verticalAlign=middle;whiteSpace=wrap;rounded=0;rotation=315;" parent="1" vertex="1">
          <mxGeometry x="440" y="30" width="70" height="20" as="geometry" />
        </mxCell>
        <mxCell id="toi9PzrO5dzy1bC58ue5-22" value="Data" style="text;html=1;strokeColor=none;fillColor=none;align=center;verticalAlign=middle;whiteSpace=wrap;rounded=0;rotation=315;" parent="1" vertex="1">
          <mxGeometry x="400" y="35" width="40" height="20" as="geometry" />
        </mxCell>
        <mxCell id="toi9PzrO5dzy1bC58ue5-24" value="" style="html=1;outlineConnect=0;fillColor=#e1d5e7;strokeColor=#9673a6;gradientDirection=north;strokeWidth=2;shape=mxgraph.networks.bus;gradientDirection=north;perimeter=backbonePerimeter;backboneSize=20;direction=south;labelPosition=center;verticalLabelPosition=top;align=center;verticalAlign=bottom;" parent="1" vertex="1">
          <mxGeometry x="450" y="80" width="20" height="790" as="geometry" />
        </mxCell>
        <mxCell id="toi9PzrO5dzy1bC58ue5-25" value="" style="html=1;outlineConnect=0;fillColor=#eeeeee;gradientDirection=north;strokeWidth=2;shape=mxgraph.networks.bus;gradientDirection=north;perimeter=backbonePerimeter;backboneSize=20;direction=south;labelPosition=center;verticalLabelPosition=top;align=center;verticalAlign=bottom;strokeColor=#36393d;" parent="1" vertex="1">
          <mxGeometry x="410" y="80" width="20" height="790" as="geometry" />
        </mxCell>
        <mxCell id="toi9PzrO5dzy1bC58ue5-26" value="" style="shape=flexArrow;endArrow=classic;startArrow=classic;html=1;entryX=0;entryY=1;entryDx=0;entryDy=0;" parent="1" source="toi9PzrO5dzy1bC58ue5-18" target="toi9PzrO5dzy1bC58ue5-1" edge="1">
          <mxGeometry width="100" height="100" relative="1" as="geometry">
            <mxPoint x="670" y="520" as="sourcePoint" />
            <mxPoint x="400" y="460" as="targetPoint" />
          </mxGeometry>
        </mxCell>
        <mxCell id="toi9PzrO5dzy1bC58ue5-27" value="" style="shape=flexArrow;endArrow=classic;startArrow=classic;html=1;" parent="1" source="toi9PzrO5dzy1bC58ue5-24" target="toi9PzrO5dzy1bC58ue5-1" edge="1">
          <mxGeometry width="100" height="100" relative="1" as="geometry">
            <mxPoint x="300" y="630" as="sourcePoint" />
            <mxPoint x="400" y="530" as="targetPoint" />
          </mxGeometry>
        </mxCell>
        <mxCell id="toi9PzrO5dzy1bC58ue5-28" value="" style="shape=flexArrow;endArrow=classic;startArrow=classic;html=1;entryX=0;entryY=0;entryDx=0;entryDy=0;" parent="1" source="toi9PzrO5dzy1bC58ue5-25" target="toi9PzrO5dzy1bC58ue5-1" edge="1">
          <mxGeometry width="100" height="100" relative="1" as="geometry">
            <mxPoint x="300" y="630" as="sourcePoint" />
            <mxPoint x="400" y="530" as="targetPoint" />
          </mxGeometry>
        </mxCell>
        <mxCell id="toi9PzrO5dzy1bC58ue5-30" value="REST" style="rounded=0;whiteSpace=wrap;html=1;" parent="1" vertex="1">
          <mxGeometry x="90" y="185" width="55" height="30" as="geometry" />
        </mxCell>
        <mxCell id="toi9PzrO5dzy1bC58ue5-32" value="leaning&lt;br&gt;and&lt;br&gt;research&lt;br&gt;accellerator&amp;nbsp;" style="rounded=0;whiteSpace=wrap;html=1;" parent="1" vertex="1">
          <mxGeometry x="690" y="610" width="90" height="60" as="geometry" />
        </mxCell>
        <mxCell id="toi9PzrO5dzy1bC58ue5-33" value="eisenban" style="rounded=0;whiteSpace=wrap;html=1;" parent="1" vertex="1">
          <mxGeometry x="705" y="740" width="70" height="40" as="geometry" />
        </mxCell>
        <mxCell id="toi9PzrO5dzy1bC58ue5-34" value="NOSQL" style="rounded=0;whiteSpace=wrap;html=1;" parent="1" vertex="1">
          <mxGeometry x="147.5" y="550" width="50" height="30" as="geometry" />
        </mxCell>
        <mxCell id="toi9PzrO5dzy1bC58ue5-35" value="RMDB" style="rounded=0;whiteSpace=wrap;html=1;" parent="1" vertex="1">
          <mxGeometry x="87.5" y="490" width="40" height="30" as="geometry" />
        </mxCell>
        <mxCell id="toi9PzrO5dzy1bC58ue5-36" value="file" style="rounded=0;whiteSpace=wrap;html=1;" parent="1" vertex="1">
          <mxGeometry x="147.5" y="440" width="47.5" height="20" as="geometry" />
        </mxCell>
        <mxCell id="toi9PzrO5dzy1bC58ue5-37" value="Address" style="text;html=1;strokeColor=none;fillColor=none;align=center;verticalAlign=middle;whiteSpace=wrap;rounded=0;rotation=315;" parent="1" vertex="1">
          <mxGeometry x="470" y="900" width="40" height="20" as="geometry" />
        </mxCell>
        <mxCell id="toi9PzrO5dzy1bC58ue5-38" value="Instruction" style="text;html=1;strokeColor=none;fillColor=none;align=center;verticalAlign=middle;whiteSpace=wrap;rounded=0;rotation=315;" parent="1" vertex="1">
          <mxGeometry x="410" y="900" width="70" height="20" as="geometry" />
        </mxCell>
        <mxCell id="toi9PzrO5dzy1bC58ue5-39" value="Data" style="text;html=1;strokeColor=none;fillColor=none;align=center;verticalAlign=middle;whiteSpace=wrap;rounded=0;rotation=315;" parent="1" vertex="1">
          <mxGeometry x="390" y="900" width="40" height="20" as="geometry" />
        </mxCell>
        <mxCell id="toi9PzrO5dzy1bC58ue5-41" value="" style="endArrow=classic;startArrow=classic;html=1;exitX=1;exitY=0.225;exitDx=0;exitDy=0;exitPerimeter=0;" parent="1" source="toi9PzrO5dzy1bC58ue5-13" target="toi9PzrO5dzy1bC58ue5-25" edge="1">
          <mxGeometry width="50" height="50" relative="1" as="geometry">
            <mxPoint x="320" y="510" as="sourcePoint" />
            <mxPoint x="400" y="467" as="targetPoint" />
          </mxGeometry>
        </mxCell>
        <mxCell id="toi9PzrO5dzy1bC58ue5-45" value="" style="endArrow=classic;startArrow=classic;html=1;exitX=1;exitY=0.5;exitDx=0;exitDy=0;" parent="1" source="toi9PzrO5dzy1bC58ue5-12" edge="1">
          <mxGeometry width="50" height="50" relative="1" as="geometry">
            <mxPoint x="250.71067811865464" y="439.28932188134536" as="sourcePoint" />
            <mxPoint x="450" y="500" as="targetPoint" />
          </mxGeometry>
        </mxCell>
        <mxCell id="toi9PzrO5dzy1bC58ue5-46" value="" style="endArrow=classic;startArrow=classic;html=1;exitX=1.033;exitY=0.75;exitDx=0;exitDy=0;exitPerimeter=0;" parent="1" source="toi9PzrO5dzy1bC58ue5-13" target="toi9PzrO5dzy1bC58ue5-18" edge="1">
          <mxGeometry width="50" height="50" relative="1" as="geometry">
            <mxPoint x="230" y="580" as="sourcePoint" />
            <mxPoint x="427" y="449" as="targetPoint" />
          </mxGeometry>
        </mxCell>
        <mxCell id="toi9PzrO5dzy1bC58ue5-48" value="" style="endArrow=classic;startArrow=classic;html=1;exitX=1;exitY=0.225;exitDx=0;exitDy=0;exitPerimeter=0;" parent="1" edge="1">
          <mxGeometry width="50" height="50" relative="1" as="geometry">
            <mxPoint x="270" y="203" as="sourcePoint" />
            <mxPoint x="410" y="203" as="targetPoint" />
          </mxGeometry>
        </mxCell>
        <mxCell id="toi9PzrO5dzy1bC58ue5-49" value="" style="endArrow=classic;startArrow=classic;html=1;exitX=1;exitY=0.5;exitDx=0;exitDy=0;" parent="1" edge="1">
          <mxGeometry width="50" height="50" relative="1" as="geometry">
            <mxPoint x="270" y="236" as="sourcePoint" />
            <mxPoint x="450" y="236" as="targetPoint" />
          </mxGeometry>
        </mxCell>
        <mxCell id="toi9PzrO5dzy1bC58ue5-50" value="" style="endArrow=classic;startArrow=classic;html=1;exitX=1.033;exitY=0.75;exitDx=0;exitDy=0;exitPerimeter=0;" parent="1" edge="1">
          <mxGeometry width="50" height="50" relative="1" as="geometry">
            <mxPoint x="271.98" y="266" as="sourcePoint" />
            <mxPoint x="490" y="266" as="targetPoint" />
          </mxGeometry>
        </mxCell>
        <mxCell id="toi9PzrO5dzy1bC58ue5-51" value="" style="endArrow=classic;startArrow=classic;html=1;exitX=1;exitY=0.225;exitDx=0;exitDy=0;exitPerimeter=0;" parent="1" edge="1">
          <mxGeometry width="50" height="50" relative="1" as="geometry">
            <mxPoint x="280" y="725" as="sourcePoint" />
            <mxPoint x="410" y="725" as="targetPoint" />
          </mxGeometry>
        </mxCell>
        <mxCell id="toi9PzrO5dzy1bC58ue5-52" value="" style="endArrow=classic;startArrow=classic;html=1;exitX=1;exitY=0.5;exitDx=0;exitDy=0;" parent="1" edge="1">
          <mxGeometry width="50" height="50" relative="1" as="geometry">
            <mxPoint x="280" y="758" as="sourcePoint" />
            <mxPoint x="450" y="758" as="targetPoint" />
          </mxGeometry>
        </mxCell>
        <mxCell id="toi9PzrO5dzy1bC58ue5-53" value="" style="endArrow=classic;startArrow=classic;html=1;exitX=1.033;exitY=0.75;exitDx=0;exitDy=0;exitPerimeter=0;" parent="1" target="toi9PzrO5dzy1bC58ue5-18" edge="1">
          <mxGeometry width="50" height="50" relative="1" as="geometry">
            <mxPoint x="281.98" y="788" as="sourcePoint" />
            <mxPoint x="480" y="788" as="targetPoint" />
          </mxGeometry>
        </mxCell>
        <mxCell id="toi9PzrO5dzy1bC58ue5-57" value="" style="endArrow=classic;startArrow=classic;html=1;" parent="1" source="toi9PzrO5dzy1bC58ue5-25" edge="1">
          <mxGeometry width="50" height="50" relative="1" as="geometry">
            <mxPoint x="510" y="160" as="sourcePoint" />
            <mxPoint x="640" y="160" as="targetPoint" />
          </mxGeometry>
        </mxCell>
        <mxCell id="toi9PzrO5dzy1bC58ue5-58" value="" style="endArrow=classic;startArrow=classic;html=1;" parent="1" source="toi9PzrO5dzy1bC58ue5-24" edge="1">
          <mxGeometry width="50" height="50" relative="1" as="geometry">
            <mxPoint x="540" y="200" as="sourcePoint" />
            <mxPoint x="640" y="199.5" as="targetPoint" />
          </mxGeometry>
        </mxCell>
        <mxCell id="toi9PzrO5dzy1bC58ue5-59" value="" style="endArrow=classic;startArrow=classic;html=1;entryX=0;entryY=1;entryDx=0;entryDy=0;" parent="1" source="toi9PzrO5dzy1bC58ue5-18" target="toi9PzrO5dzy1bC58ue5-7" edge="1">
          <mxGeometry width="50" height="50" relative="1" as="geometry">
            <mxPoint x="540" y="232" as="sourcePoint" />
            <mxPoint x="610" y="232" as="targetPoint" />
          </mxGeometry>
        </mxCell>
        <mxCell id="toi9PzrO5dzy1bC58ue5-60" value="" style="endArrow=classic;startArrow=classic;html=1;" parent="1" edge="1">
          <mxGeometry width="50" height="50" relative="1" as="geometry">
            <mxPoint x="430" y="680" as="sourcePoint" />
            <mxPoint x="610" y="680" as="targetPoint" />
          </mxGeometry>
        </mxCell>
        <mxCell id="toi9PzrO5dzy1bC58ue5-61" value="" style="endArrow=classic;startArrow=classic;html=1;" parent="1" edge="1">
          <mxGeometry width="50" height="50" relative="1" as="geometry">
            <mxPoint x="470" y="720" as="sourcePoint" />
            <mxPoint x="611.17" y="719.5" as="targetPoint" />
          </mxGeometry>
        </mxCell>
        <mxCell id="toi9PzrO5dzy1bC58ue5-62" value="" style="endArrow=classic;startArrow=classic;html=1;entryX=0;entryY=1;entryDx=0;entryDy=0;" parent="1" edge="1">
          <mxGeometry width="50" height="50" relative="1" as="geometry">
            <mxPoint x="510" y="755" as="sourcePoint" />
            <mxPoint x="619.8316482048243" y="754.8105387698693" as="targetPoint" />
          </mxGeometry>
        </mxCell>
        <mxCell id="dmTc4Ta7kLlR1RZZmJIW-1" value="Looks like a microservice architecture" style="text;html=1;strokeColor=none;fillColor=none;align=center;verticalAlign=middle;whiteSpace=wrap;rounded=0;" vertex="1" parent="1">
          <mxGeometry x="80" y="25" width="230" height="30" as="geometry" />
        </mxCell>
      </root>
    </mxGraphModel>
  </diagram>
</mxfile>
